<?xml version="1.0" encoding="UTF-8" standalone="no"?>
<svg width="300" height="100" viewBox="0 0 300 100" xmlns="http://www.w3.org/2000/svg" fill="black" font-family="sans-serif">
  <!-- Speech bubble with circuit lines -->
  <g transform="translate(10,20)">
    <path d="M0,0 h40 a10,10 0 0 1 10,10 v30 a10,10 0 0 1 -10,10 h-20 l-10,10 v-10 h-10 a10,10 0 0 1 -10,-10 v-30 a10,10 0 0 1 10,-10 z" fill="none" stroke="black" stroke-width="2"/>
    <circle cx="15" cy="15" r="3"/>
    <circle cx="30" cy="15" r="3"/>
    <circle cx="15" cy="30" r="3"/>
    <line x1="15" y1="15" x2="30" y2="15" stroke="black" stroke-width="2"/>
    <line x1="15" y1="15" x2="15" y2="30" stroke="black" stroke-width="2"/>
  </g>
  <!-- Text PRATIK -->
  <text x="80" y="50" font-size="32" font-weight="bold">PRATIK</text>
</svg>
